<svg width="134" height="28" viewBox="0 0 134 28" fill="none" xmlns="http://www.w3.org/2000/svg">
<path d="M5.758 4.824V12.528H15.514V16.398H5.758V27H0.898V0.971998H17.314V4.824H5.758ZM27.1414 8.244C28.5094 8.244 29.7514 8.466 30.8674 8.91C31.9954 9.354 32.9554 9.984 33.7474 10.8C34.5514 11.616 35.1694 12.612 35.6014 13.788C36.0334 14.964 36.2494 16.278 36.2494 17.73C36.2494 19.194 36.0334 20.514 35.6014 21.69C35.1694 22.866 34.5514 23.868 33.7474 24.696C32.9554 25.524 31.9954 26.16 30.8674 26.604C29.7514 27.048 28.5094 27.27 27.1414 27.27C25.7614 27.27 24.5074 27.048 23.3794 26.604C22.2514 26.16 21.2854 25.524 20.4814 24.696C19.6894 23.868 19.0714 22.866 18.6274 21.69C18.1954 20.514 17.9794 19.194 17.9794 17.73C17.9794 16.278 18.1954 14.964 18.6274 13.788C19.0714 12.612 19.6894 11.616 20.4814 10.8C21.2854 9.984 22.2514 9.354 23.3794 8.91C24.5074 8.466 25.7614 8.244 27.1414 8.244ZM27.1414 23.85C28.6774 23.85 29.8114 23.334 30.5434 22.302C31.2874 21.27 31.6594 19.758 31.6594 17.766C31.6594 15.774 31.2874 14.256 30.5434 13.212C29.8114 12.168 28.6774 11.646 27.1414 11.646C25.5814 11.646 24.4234 12.174 23.6674 13.23C22.9234 14.274 22.5514 15.786 22.5514 17.766C22.5514 19.746 22.9234 21.258 23.6674 22.302C24.4234 23.334 25.5814 23.85 27.1414 23.85ZM47.8133 8.244C49.1813 8.244 50.4233 8.466 51.5393 8.91C52.6673 9.354 53.6273 9.984 54.4193 10.8C55.2233 11.616 55.8413 12.612 56.2733 13.788C56.7053 14.964 56.9213 16.278 56.9213 17.73C56.9213 19.194 56.7053 20.514 56.2733 21.69C55.8413 22.866 55.2233 23.868 54.4193 24.696C53.6273 25.524 52.6673 26.16 51.5393 26.604C50.4233 27.048 49.1813 27.27 47.8133 27.27C46.4333 27.27 45.1793 27.048 44.0513 26.604C42.9233 26.16 41.9573 25.524 41.1533 24.696C40.3613 23.868 39.7433 22.866 39.2993 21.69C38.8673 20.514 38.6513 19.194 38.6513 17.73C38.6513 16.278 38.8673 14.964 39.2993 13.788C39.7433 12.612 40.3613 11.616 41.1533 10.8C41.9573 9.984 42.9233 9.354 44.0513 8.91C45.1793 8.466 46.4333 8.244 47.8133 8.244ZM47.8133 23.85C49.3493 23.85 50.4833 23.334 51.2153 22.302C51.9593 21.27 52.3313 19.758 52.3313 17.766C52.3313 15.774 51.9593 14.256 51.2153 13.212C50.4833 12.168 49.3493 11.646 47.8133 11.646C46.2533 11.646 45.0953 12.174 44.3393 13.23C43.5953 14.274 43.2233 15.786 43.2233 17.766C43.2233 19.746 43.5953 21.258 44.3393 22.302C45.0953 23.334 46.2533 23.85 47.8133 23.85ZM71.9052 13.248C71.4012 12.636 70.8492 12.204 70.2492 11.952C69.6612 11.7 69.0252 11.574 68.3412 11.574C67.6692 11.574 67.0632 11.7 66.5232 11.952C65.9832 12.204 65.5212 12.588 65.1372 13.104C64.7532 13.608 64.4592 14.256 64.2552 15.048C64.0512 15.828 63.9492 16.752 63.9492 17.82C63.9492 18.9 64.0332 19.818 64.2012 20.574C64.3812 21.318 64.6332 21.93 64.9572 22.41C65.2812 22.878 65.6772 23.22 66.1452 23.436C66.6132 23.64 67.1352 23.742 67.7112 23.742C68.6352 23.742 69.4212 23.55 70.0692 23.166C70.7172 22.782 71.3292 22.236 71.9052 21.528V13.248ZM76.3512 0.251999V27H73.6332C73.0452 27 72.6732 26.73 72.5172 26.19L72.1392 24.408C71.3952 25.26 70.5372 25.95 69.5652 26.478C68.6052 27.006 67.4832 27.27 66.1992 27.27C65.1912 27.27 64.2672 27.06 63.4272 26.64C62.5872 26.22 61.8612 25.614 61.2492 24.822C60.6492 24.018 60.1812 23.028 59.8452 21.852C59.5212 20.676 59.3592 19.332 59.3592 17.82C59.3592 16.452 59.5452 15.18 59.9172 14.004C60.2892 12.828 60.8232 11.808 61.5192 10.944C62.2152 10.08 63.0492 9.408 64.0212 8.928C64.9932 8.436 66.0852 8.19 67.2972 8.19C68.3292 8.19 69.2112 8.352 69.9432 8.676C70.6752 9 71.3292 9.438 71.9052 9.99V0.251999H76.3512ZM96.4057 23.004V27H81.1597V0.971998H86.0017V23.004H96.4057ZM106.384 8.244C107.752 8.244 108.994 8.466 110.11 8.91C111.238 9.354 112.198 9.984 112.99 10.8C113.794 11.616 114.412 12.612 114.844 13.788C115.276 14.964 115.492 16.278 115.492 17.73C115.492 19.194 115.276 20.514 114.844 21.69C114.412 22.866 113.794 23.868 112.99 24.696C112.198 25.524 111.238 26.16 110.11 26.604C108.994 27.048 107.752 27.27 106.384 27.27C105.004 27.27 103.75 27.048 102.622 26.604C101.494 26.16 100.528 25.524 99.7236 24.696C98.9316 23.868 98.3136 22.866 97.8696 21.69C97.4376 20.514 97.2216 19.194 97.2216 17.73C97.2216 16.278 97.4376 14.964 97.8696 13.788C98.3136 12.612 98.9316 11.616 99.7236 10.8C100.528 9.984 101.494 9.354 102.622 8.91C103.75 8.466 105.004 8.244 106.384 8.244ZM106.384 23.85C107.92 23.85 109.054 23.334 109.786 22.302C110.53 21.27 110.902 19.758 110.902 17.766C110.902 15.774 110.53 14.256 109.786 13.212C109.054 12.168 107.92 11.646 106.384 11.646C104.824 11.646 103.666 12.174 102.91 13.23C102.166 14.274 101.794 15.786 101.794 17.766C101.794 19.746 102.166 21.258 102.91 22.302C103.666 23.334 104.824 23.85 106.384 23.85ZM132.114 12.438C131.982 12.606 131.85 12.738 131.718 12.834C131.598 12.93 131.418 12.978 131.178 12.978C130.95 12.978 130.728 12.912 130.512 12.78C130.296 12.636 130.038 12.48 129.738 12.312C129.438 12.132 129.078 11.976 128.658 11.844C128.25 11.7 127.74 11.628 127.128 11.628C126.348 11.628 125.664 11.772 125.076 12.06C124.488 12.336 123.996 12.738 123.6 13.266C123.216 13.794 122.928 14.436 122.736 15.192C122.544 15.936 122.448 16.782 122.448 17.73C122.448 18.714 122.55 19.59 122.754 20.358C122.97 21.126 123.276 21.774 123.672 22.302C124.068 22.818 124.548 23.214 125.112 23.49C125.676 23.754 126.312 23.886 127.02 23.886C127.728 23.886 128.298 23.802 128.73 23.634C129.174 23.454 129.546 23.262 129.846 23.058C130.146 22.842 130.404 22.65 130.62 22.482C130.848 22.302 131.1 22.212 131.376 22.212C131.736 22.212 132.006 22.35 132.186 22.626L133.464 24.246C132.972 24.822 132.438 25.308 131.862 25.704C131.286 26.088 130.686 26.4 130.062 26.64C129.45 26.868 128.814 27.03 128.154 27.126C127.506 27.222 126.858 27.27 126.21 27.27C125.07 27.27 123.996 27.06 122.988 26.64C121.98 26.208 121.098 25.584 120.342 24.768C119.586 23.952 118.986 22.956 118.542 21.78C118.11 20.592 117.894 19.242 117.894 17.73C117.894 16.374 118.086 15.12 118.47 13.968C118.866 12.804 119.442 11.802 120.198 10.962C120.954 10.11 121.89 9.444 123.006 8.964C124.122 8.484 125.406 8.244 126.857 8.244C128.238 8.244 129.444 8.466 130.476 8.91C131.52 9.354 132.456 9.99 133.284 10.818L132.114 12.438Z" fill="white"/>
</svg>
