<svg width="32" height="28" viewBox="0 0 32 28" fill="none" xmlns="http://www.w3.org/2000/svg">
<g id="&#240;&#159;&#166;&#134; icon &#34;money&#34;">
<path id="Vector" d="M24 0.5H8C3.2 0.5 0 2.9 0 8.5V19.7C0 25.3 3.2 27.7 8 27.7H24C28.8 27.7 32 25.3 32 19.7V8.5C32 2.9 28.8 0.5 24 0.5ZM6.8 18.1C6.8 18.756 6.256 19.3 5.6 19.3C4.944 19.3 4.4 18.756 4.4 18.1V10.1C4.4 9.444 4.944 8.9 5.6 8.9C6.256 8.9 6.8 9.444 6.8 10.1V18.1ZM16 18.9C13.344 18.9 11.2 16.756 11.2 14.1C11.2 11.444 13.344 9.3 16 9.3C18.656 9.3 20.8 11.444 20.8 14.1C20.8 16.756 18.656 18.9 16 18.9ZM27.6 18.1C27.6 18.756 27.056 19.3 26.4 19.3C25.744 19.3 25.2 18.756 25.2 18.1V10.1C25.2 9.444 25.744 8.9 26.4 8.9C27.056 8.9 27.6 9.444 27.6 10.1V18.1Z" fill="#FAB85B"/>
</g>
</svg>
